<svg width="40" height="40" viewBox="0 0 40 40" fill="none" xmlns="http://www.w3.org/2000/svg">
<rect width="40" height="40" rx="8" fill="#D2D2D2" fill-opacity="0.25"/>
<path d="M18.3333 13V14.7842L20 15.8342V14.5789H28.3333V26.4211H24.1667V28H30V13H18.3333ZM16.25 15.3684L10 19.3158V28H22.5V19.3158L16.25 15.3684ZM21.6667 16.1579V16.8921L23.0083 17.7368H23.3333V16.1579H21.6667ZM25 16.1579V17.7368H26.6667V16.1579H25ZM16.25 17.3421L20.8333 20.1053V26.4211H18.3333V21.6842H14.1667V26.4211H11.6667V20.1053L16.25 17.3421ZM25 19.3158V20.8947H26.6667V19.3158H25ZM25 22.4737V24.0526H26.6667V22.4737H25Z" fill="#878787"/>
</svg>
