<svg width="40" height="40" viewBox="0 0 40 40" fill="none" xmlns="http://www.w3.org/2000/svg">
<rect width="40" height="40" rx="8" fill="#D2D2D2" fill-opacity="0.25"/>
<path d="M22.75 15.46L20 11.93L21.97 11.54L24.71 15.07L22.75 15.46ZM29.62 14.1L28.84 10.18L24.91 10.96L27.65 14.5L29.62 14.1ZM19.81 16.05L17.07 12.5L15.1 12.91L17.85 16.44L19.81 16.05ZM12.16 13.5L11.18 13.69C10.9224 13.7408 10.6774 13.8419 10.4589 13.9876C10.2405 14.1333 10.053 14.3207 9.90713 14.539C9.76127 14.7574 9.65994 15.0023 9.60896 15.2599C9.55797 15.5175 9.55833 15.7826 9.61001 16.04L10 18L14.9 17.03L12.16 13.5ZM12 28V20H28V21.09C28.72 21.21 29.39 21.46 30 21.81V18H10V28C10 28.5304 10.2107 29.0391 10.5858 29.4142C10.9609 29.7893 11.4696 30 12 30H21.81C21.46 29.39 21.22 28.72 21.09 28H12ZM29.34 23.84L25.75 27.43L24.16 25.84L23 27L25.75 30L30.5 25.25L29.34 23.84Z" fill="#878787"/>
</svg>
